<svg width="128" height="128" viewBox="0 0 128 128" fill="none" xmlns="http://www.w3.org/2000/svg">
<path d="M105.748 20.013H45.0837C29.7073 20.013 20 28.8892 20 43.5965V84.1032C20 98.3959 29.9791 107 45.3555 107H105.748C106.99 107 108 105.989 108 104.745V91.6318C108 90.3879 106.99 89.3771 105.748 89.3771H49.9373C43.427 89.3771 39.4017 86.0469 39.4017 79.3865V47.756C39.4017 41.5103 42.728 37.4933 50.6233 37.4933H105.748C106.99 37.4933 108 36.4826 108 35.2386V22.2547C108 21.0107 106.99 20 105.748 20V20.013Z" fill="url(#paint0_linear_213_3164)"/>
<defs>
<linearGradient id="paint0_linear_213_3164" x1="58.6998" y1="-22.4245" x2="75.6552" y2="220.458" gradientUnits="userSpaceOnUse">
<stop stop-color="#FA00FF"/>
<stop offset="0.23" stop-color="#FA00FF"/>
<stop offset="0.76" stop-color="#910091"/>
</linearGradient>
</defs>
</svg>
