<svg width="161" height="31" viewBox="0 0 161 31" fill="none" xmlns="http://www.w3.org/2000/svg">
<path d="M63 30.2244V25.5589H65.344C65.6894 25.5589 65.9749 25.6186 66.1979 25.7408C66.4236 25.863 66.5922 26.0368 66.7064 26.2595C66.8206 26.4822 66.8777 26.7483 66.8777 27.0552C66.8777 27.3621 66.8179 27.6255 66.7009 27.8509C66.584 28.0763 66.4072 28.2528 66.1734 28.3777C65.9395 28.5026 65.6486 28.5651 65.2978 28.5651H63.8892V30.2244H63.0027H63ZM63.8865 27.8101H65.2679C65.4936 27.8101 65.6703 27.7423 65.7954 27.6092C65.9205 27.4761 65.983 27.2914 65.983 27.0552C65.983 26.8977 65.9558 26.7619 65.9015 26.6533C65.8471 26.5446 65.7682 26.4605 65.6622 26.4007C65.5561 26.341 65.4256 26.3111 65.2679 26.3111H63.8865V27.8074V27.8101Z" fill="white"/>
<path d="M71.7505 30.3058C71.2638 30.3058 70.845 30.2189 70.4915 30.0451C70.138 29.8713 69.8661 29.6052 69.6784 29.2467C69.4908 28.8883 69.3956 28.4375 69.3956 27.8943C69.3956 27.3512 69.4908 26.8922 69.6784 26.5365C69.8661 26.1807 70.138 25.9146 70.4915 25.7408C70.845 25.567 71.2665 25.4801 71.7505 25.4801C72.2345 25.4801 72.6615 25.567 73.015 25.7408C73.3658 25.9146 73.6377 26.1807 73.8253 26.5365C74.013 26.8922 74.1081 27.3458 74.1081 27.8943C74.1081 28.4429 74.013 28.891 73.8253 29.2467C73.6377 29.6052 73.3658 29.8713 73.015 30.0451C72.6642 30.2189 72.2427 30.3058 71.7505 30.3058ZM71.7505 29.5563C71.9871 29.5563 72.1938 29.5237 72.3732 29.4558C72.5527 29.388 72.705 29.2875 72.8274 29.1517C72.9497 29.0186 73.0422 28.853 73.1074 28.6547C73.1727 28.4565 73.2026 28.2284 73.2026 27.9704V27.821C73.2026 27.5576 73.17 27.3267 73.1074 27.1258C73.0449 26.9248 72.9497 26.7592 72.8274 26.6261C72.705 26.493 72.5527 26.3926 72.3732 26.3247C72.1938 26.2568 71.9871 26.2242 71.7505 26.2242C71.5139 26.2242 71.3073 26.2568 71.1278 26.3247C70.9483 26.3926 70.7961 26.493 70.6737 26.6261C70.5513 26.7592 70.4589 26.9275 70.399 27.1258C70.3392 27.324 70.3066 27.5576 70.3066 27.821V27.9704C70.3066 28.2284 70.3365 28.4565 70.399 28.6547C70.4616 28.853 70.5513 29.0186 70.6737 29.1517C70.7961 29.2847 70.9483 29.3852 71.1278 29.4558C71.3073 29.5237 71.5139 29.5563 71.7505 29.5563Z" fill="white"/>
<path d="M77.692 30.2244L76.4248 25.5589H77.3657L78.1216 28.5597C78.1352 28.6058 78.1488 28.6683 78.1624 28.7471C78.176 28.8258 78.1896 28.91 78.2032 28.9969C78.2168 29.0838 78.2277 29.1598 78.2386 29.2277H78.2739C78.2821 29.1734 78.2902 29.1137 78.2984 29.0512C78.3065 28.9887 78.3147 28.9236 78.3256 28.8611C78.3365 28.7987 78.3473 28.7389 78.3555 28.6873C78.3636 28.6357 78.3718 28.5923 78.3772 28.5624L79.0788 25.5616H80.2155L80.917 28.5624C80.9306 28.6086 80.9442 28.671 80.9578 28.7498C80.9714 28.8285 80.985 28.9127 80.9986 28.9996C81.0122 29.0865 81.0231 29.1626 81.0313 29.2304H81.0666C81.0748 29.1816 81.0856 29.1245 81.0965 29.0648C81.1074 29.005 81.1183 28.9426 81.1319 28.8828C81.1427 28.8204 81.1563 28.7634 81.1699 28.709C81.1835 28.6547 81.1944 28.6058 81.2026 28.5651L81.9585 25.5643H82.7906L81.518 30.2298H80.5037L79.7478 27.1692C79.7342 27.1041 79.7206 27.0335 79.7042 26.9466C79.6879 26.8624 79.6743 26.7782 79.6635 26.694C79.6526 26.6098 79.6417 26.5365 79.6335 26.474H79.6064C79.6009 26.5419 79.5928 26.6207 79.5819 26.7076C79.571 26.7945 79.5574 26.8814 79.5438 26.9629C79.5302 27.0443 79.5166 27.1122 79.503 27.1665L78.7552 30.2271H77.7001L77.692 30.2244Z" fill="white"/>
<path d="M85.4149 30.2244V25.5589H89.0587V26.3138H86.3013V27.4625H88.7596V28.2175H86.3013V29.4694H89.0995V30.2244H85.4149Z" fill="white"/>
<path d="M92.0362 30.2244V25.5589H94.4944C94.8398 25.5589 95.1253 25.6186 95.3537 25.7354C95.5794 25.8549 95.7507 26.0205 95.8649 26.2378C95.9791 26.455 96.0362 26.7103 96.0362 27.0063C96.0362 27.3023 95.9683 27.5793 95.8323 27.8129C95.6963 28.0464 95.4951 28.2229 95.2341 28.3397L96.2021 30.2244H95.2341L94.3748 28.4891H92.9254V30.2244H92.0389H92.0362ZM92.92 27.7477H94.4264C94.6521 27.7477 94.8289 27.6825 94.9513 27.5494C95.0736 27.4191 95.1362 27.2371 95.1362 27.0063C95.1362 26.8569 95.109 26.732 95.0546 26.6288C95.0002 26.5284 94.9213 26.4496 94.8153 26.3953C94.712 26.341 94.5814 26.3138 94.4264 26.3138H92.92V27.7504V27.7477Z" fill="white"/>
<path d="M98.9624 30.2244V25.5589H102.606V26.3138H99.8489V27.4625H102.307V28.2175H99.8489V29.4694H102.647V30.2244H98.9624Z" fill="white"/>
<path d="M105.584 30.2244V25.5589H107.457C107.93 25.5589 108.333 25.643 108.67 25.8114C109.007 25.9798 109.266 26.2351 109.448 26.5772C109.63 26.9194 109.72 27.3593 109.72 27.8943C109.72 28.4293 109.63 28.8638 109.448 29.2087C109.266 29.5536 109.007 29.8089 108.67 29.9773C108.333 30.1456 107.93 30.2298 107.457 30.2298H105.584V30.2244ZM106.468 29.4694H107.455C107.672 29.4694 107.865 29.4368 108.034 29.3744C108.202 29.3092 108.344 29.2169 108.455 29.0919C108.567 28.967 108.654 28.8122 108.714 28.6221C108.773 28.4348 108.803 28.2148 108.803 27.9649V27.821C108.803 27.5685 108.773 27.3458 108.714 27.1584C108.654 26.971 108.57 26.8135 108.455 26.6886C108.341 26.5637 108.2 26.4713 108.034 26.4061C107.865 26.3437 107.672 26.3111 107.455 26.3111H106.468V29.4667V29.4694Z" fill="white"/>
<path d="M115.99 30.2244V25.5589H118.538C118.788 25.5589 119.011 25.6077 119.21 25.7028C119.408 25.7978 119.563 25.9309 119.675 26.1047C119.789 26.2785 119.846 26.4795 119.846 26.7103C119.846 26.8868 119.814 27.047 119.746 27.1937C119.678 27.3403 119.585 27.4598 119.471 27.5576C119.357 27.6554 119.223 27.7287 119.079 27.7776V27.8047C119.253 27.84 119.406 27.9106 119.542 28.0138C119.678 28.117 119.784 28.2447 119.862 28.4022C119.939 28.5597 119.977 28.7389 119.977 28.9426C119.977 29.2332 119.911 29.4721 119.784 29.665C119.653 29.8551 119.482 29.9963 119.267 30.0886C119.052 30.1809 118.81 30.2271 118.541 30.2271H115.993L115.99 30.2244ZM116.874 27.4625H118.304C118.44 27.4625 118.555 27.4381 118.65 27.3865C118.745 27.3349 118.813 27.267 118.862 27.1828C118.911 27.0986 118.932 27.0009 118.932 26.8977C118.932 26.6994 118.878 26.5501 118.772 26.455C118.666 26.36 118.525 26.3111 118.353 26.3111H116.877V27.4598L116.874 27.4625ZM116.874 29.4694H118.421C118.606 29.4694 118.761 29.4178 118.881 29.3146C119 29.2142 119.06 29.0539 119.06 28.834C119.06 28.7063 119.036 28.595 118.984 28.4999C118.932 28.4049 118.859 28.3316 118.756 28.28C118.655 28.2284 118.522 28.2012 118.364 28.2012H116.871V29.4667L116.874 29.4694Z" fill="white"/>
<path d="M124.088 30.2244V28.3261L122.291 25.5589H123.313L124.545 27.5304H124.58L125.799 25.5589H126.767L124.975 28.3261V30.2244H124.088Z" fill="white"/>
<path d="M145.688 25.9363C145.565 25.7407 145.351 25.624 145.122 25.624H143.523C143.289 25.624 143.075 25.7435 142.952 25.9417L140.464 29.9908C140.41 30.0804 140.472 30.1945 140.578 30.1945H141.465C141.511 30.1945 141.554 30.17 141.579 30.132L144.127 26.474C144.228 26.311 144.464 26.3138 144.565 26.474L147.061 30.1293C147.085 30.17 147.129 30.1945 147.175 30.1945H148.113C148.219 30.1945 148.285 30.0777 148.228 29.9881L145.688 25.9363Z" fill="white"/>
<path d="M152.636 26.5364V25.757C152.636 25.6837 152.576 25.624 152.502 25.624H147.262C147.189 25.624 147.129 25.6837 147.129 25.757V26.5364C147.129 26.6098 147.189 26.6695 147.262 26.6695H149.223C149.296 26.6695 149.356 26.7292 149.356 26.8026V30.056C149.356 30.1293 149.416 30.189 149.489 30.189H150.27C150.343 30.189 150.406 30.1293 150.406 30.056V26.8026C150.406 26.7292 150.466 26.6695 150.539 26.6695H152.5C152.573 26.6695 152.633 26.6098 152.633 26.5364H152.636Z" fill="white"/>
<path d="M139.716 24.1195C139.711 24.0625 139.665 24.0136 139.607 24.0054C139.599 24.0054 139.594 24.0054 139.586 24.0054H138.797C138.797 24.0054 138.784 24.0054 138.775 24.0054C138.721 24.0136 138.677 24.057 138.669 24.1113C138.669 24.1168 138.669 24.1222 138.669 24.1276V25.4909C138.669 25.5642 138.609 25.624 138.536 25.624H134.463C134.362 25.624 134.267 25.6321 134.174 25.6511C134.139 25.6593 134.106 25.6674 134.071 25.6756C134.071 25.6756 134.06 25.6783 134.055 25.681C134.049 25.681 134.044 25.6837 134.038 25.6864C134.036 25.6864 134.03 25.6864 134.028 25.6891C134.014 25.6946 134 25.6973 133.987 25.7027C133.981 25.7027 133.976 25.7054 133.973 25.7082C133.951 25.7163 133.93 25.7245 133.908 25.7353C133.864 25.7543 133.824 25.7733 133.783 25.7951C133.663 25.8602 133.554 25.9417 133.456 26.0395C133.421 26.0748 133.388 26.1101 133.359 26.1481C133.345 26.1644 133.334 26.178 133.32 26.1943C133.253 26.2839 133.195 26.3844 133.149 26.4903C133.092 26.6206 133.057 26.7591 133.043 26.9058C133.043 26.9166 133.043 26.9248 133.043 26.9356C133.043 26.971 133.04 27.009 133.04 27.047V28.7742C133.04 28.8122 133.04 28.8475 133.043 28.8855C133.043 28.8964 133.043 28.9045 133.043 28.9154C133.057 29.062 133.092 29.2005 133.149 29.3309C133.195 29.4368 133.253 29.5373 133.32 29.6269C133.361 29.6812 133.405 29.7328 133.454 29.7817C133.486 29.8143 133.519 29.8441 133.554 29.874C133.59 29.9039 133.625 29.931 133.663 29.9555C133.682 29.9691 133.701 29.9799 133.72 29.9935C133.758 30.0179 133.799 30.0397 133.84 30.0587C133.862 30.0695 133.881 30.0777 133.902 30.0885C133.924 30.0967 133.943 30.1048 133.965 30.113C133.97 30.113 133.976 30.1184 133.981 30.1184C133.995 30.1238 134.008 30.1266 134.022 30.132C134.028 30.132 134.033 30.1347 134.038 30.1374C134.049 30.1401 134.057 30.1429 134.068 30.1456C134.101 30.1564 134.136 30.1646 134.172 30.17C134.264 30.189 134.359 30.1972 134.46 30.1972H139.583C139.656 30.1972 139.719 30.1374 139.719 30.0641V25.4991V24.1304V24.1249L139.716 24.1195ZM138.667 29.0077C138.667 29.0837 138.604 29.1462 138.528 29.1462H134.832C134.808 29.1462 134.781 29.1462 134.756 29.1435C134.683 29.1353 134.609 29.119 134.541 29.0919C134.525 29.0865 134.509 29.0783 134.495 29.0729C134.457 29.0539 134.422 29.0349 134.386 29.0104C134.381 29.0077 134.378 29.005 134.373 28.9996C134.367 28.9941 134.365 28.9914 134.359 28.9887C134.354 28.986 134.351 28.9806 134.346 28.9778C134.34 28.9751 134.337 28.9697 134.332 28.967C134.321 28.9588 134.31 28.948 134.299 28.9398L134.294 28.9344C134.272 28.9127 134.253 28.8909 134.234 28.8665C134.229 28.8611 134.226 28.8529 134.221 28.8475C134.212 28.8339 134.202 28.8203 134.193 28.8067C134.172 28.7714 134.153 28.7334 134.134 28.6927C134.112 28.6411 134.095 28.5868 134.087 28.5298C134.087 28.5243 134.087 28.5162 134.085 28.5107C134.079 28.4727 134.076 28.432 134.076 28.3912V27.4272C134.076 27.3865 134.079 27.3457 134.085 27.3077C134.085 27.3023 134.085 27.2941 134.087 27.2887C134.095 27.2317 134.112 27.1773 134.134 27.1257C134.15 27.085 134.169 27.0497 134.193 27.0117C134.202 26.9981 134.212 26.9845 134.221 26.9709C134.226 26.9655 134.229 26.9574 134.234 26.9519C134.253 26.9275 134.272 26.9058 134.294 26.8841C134.297 26.8813 134.299 26.8786 134.302 26.8759C134.31 26.8678 134.318 26.8596 134.329 26.8515C134.335 26.8487 134.338 26.8433 134.343 26.8406C134.348 26.8379 134.351 26.8325 134.357 26.8297C134.362 26.827 134.365 26.8216 134.37 26.8189C134.376 26.8162 134.378 26.8107 134.384 26.808C134.416 26.7836 134.454 26.7618 134.492 26.7455C134.509 26.7374 134.522 26.732 134.539 26.7265C134.607 26.6994 134.677 26.6831 134.754 26.6749C134.778 26.6749 134.802 26.6722 134.83 26.6722H138.525C138.601 26.6722 138.664 26.7347 138.664 26.8107V29.0104L138.667 29.0077Z" fill="white"/>
<path fill-rule="evenodd" clip-rule="evenodd" d="M156.752 25.9363C156.63 25.7408 156.415 25.624 156.187 25.624H154.59C154.357 25.624 154.142 25.7435 154.019 25.9417L151.531 29.9908C151.477 30.0804 151.539 30.1945 151.646 30.1945H152.532C152.578 30.1945 152.622 30.17 152.646 30.132L155.191 26.474C155.292 26.311 155.531 26.3138 155.629 26.474L158.126 30.1293C158.15 30.17 158.194 30.1945 158.24 30.1945H159.178C159.284 30.1945 159.349 30.0777 159.292 29.9881L156.752 25.9363ZM160.875 24H160.086C160.015 24 159.956 24.0597 159.956 24.1304V24.9179C159.956 24.9885 160.015 25.0483 160.086 25.0483H160.875C160.945 25.0483 161.005 24.9885 161.005 24.9179V24.1304C161.005 24.0597 160.948 24 160.875 24ZM160.869 25.6213H160.089C160.015 25.6213 159.953 25.681 159.953 25.757V30.0587C159.953 30.132 160.013 30.1917 160.089 30.1917H160.869C160.943 30.1917 161.003 30.132 161.003 30.0587V25.757C161.003 25.6837 160.943 25.624 160.869 25.624V25.6213Z" fill="#FA00FF"/>
<path d="M18.0152 0.00271419H5.26995C2.03945 0.00271419 0 1.86296 0 4.94525V13.4345C0 16.4298 2.09656 18.2331 5.32706 18.2331H18.0152C18.2762 18.2331 18.4883 18.0212 18.4883 17.7605V15.0123C18.4883 14.7516 18.2762 14.5397 18.0152 14.5397H6.28968C4.92188 14.5397 4.07619 13.8418 4.07619 12.4459V5.81698C4.07619 4.50802 4.77504 3.66616 6.4338 3.66616H18.0152C18.2762 3.66616 18.4883 3.45434 18.4883 3.19363V0.472529C18.4883 0.211824 18.2762 0 18.0152 0V0.00271419Z" fill="url(#paint0_linear_122_356)"/>
<path d="M37.5775 0.25256C37.4959 0.100482 37.3355 0.00543213 37.1615 0.00543213H33.7107C33.5367 0.00543213 33.3762 0.100482 33.2947 0.25256L23.992 17.5406C23.8234 17.8556 24.0518 18.2358 24.4081 18.2358H27.9622C28.1389 18.2358 28.2994 18.138 28.3809 17.9832L29.5366 15.7808L30.0832 14.7461L32.0356 11.0555H32.0275L32.7671 9.66781L35.0187 5.44221C35.1954 5.10819 35.6767 5.10819 35.8535 5.44221L38.0806 9.6651L38.8121 11.0528L40.7645 14.7434L41.3111 15.7781L42.4912 17.9832C42.5728 18.138 42.7333 18.2331 42.9073 18.2331H46.4641C46.8203 18.2331 47.0487 17.8529 46.8801 17.5378L37.5694 0.249841L37.5775 0.25256Z" fill="url(#paint1_linear_122_356)"/>
<path d="M77.4204 0.0026474H74.092C73.9561 0.0026474 73.8256 0.0623939 73.7358 0.16559L65.5562 9.59442C65.3686 9.81167 65.0314 9.81167 64.8438 9.59442L56.637 0.16559C56.5473 0.0623939 56.4168 0.0026474 56.2808 0.0026474H52.8627C52.6016 0.0026474 52.3895 0.214472 52.3895 0.475177V17.7632C52.3895 18.0239 52.6016 18.2357 52.8627 18.2357H55.9355C56.1965 18.2357 56.4086 18.0239 56.4086 17.7632V7.16932C56.4086 6.7321 56.9497 6.53113 57.238 6.85973L63.8377 14.4392C63.9274 14.5424 64.0579 14.6021 64.1939 14.6021H66.179C66.3149 14.6021 66.4454 14.5424 66.5352 14.4392L73.075 6.89504C73.3606 6.56372 73.9044 6.7674 73.9044 7.20463V17.7659C73.9044 18.0266 74.1165 18.2384 74.3776 18.2384H77.4204C77.6815 18.2384 77.8936 18.0266 77.8936 17.7659V0.477891C77.8936 0.217186 77.6815 0.00536573 77.4204 0.00536573V0.0026474Z" fill="url(#paint2_linear_122_356)"/>
<path d="M90.3916 0.0026474H87.2318C86.9704 0.0026474 86.7586 0.214207 86.7586 0.475177V17.7605C86.7586 18.0214 86.9704 18.233 87.2318 18.233H90.3916C90.6529 18.233 90.8647 18.0214 90.8647 17.7605V0.475177C90.8647 0.214207 90.6529 0.0026474 90.3916 0.0026474Z" fill="url(#paint3_linear_122_356)"/>
<path d="M116.091 14.5397H103.784C103.523 14.5397 103.311 14.3279 103.311 14.0672V0.472529C103.311 0.211824 103.099 0 102.838 0H99.6777C99.4167 0 99.2046 0.211824 99.2046 0.472529V17.7605C99.2046 18.0212 99.4167 18.2331 99.6777 18.2331H116.091C116.352 18.2331 116.564 18.0212 116.564 17.7605V15.0123C116.564 14.7516 116.352 14.5397 116.091 14.5397Z" fill="url(#paint4_linear_122_356)"/>
<path d="M138.579 14.5397H126.272C126.011 14.5397 125.799 14.3279 125.799 14.0672V0.472529C125.799 0.211824 125.587 0 125.326 0H122.166C121.905 0 121.693 0.211824 121.693 0.472529V17.7605C121.693 18.0212 121.905 18.2331 122.166 18.2331H138.579C138.84 18.2331 139.053 18.0212 139.053 17.7605V15.0123C139.053 14.7516 138.84 14.5397 138.579 14.5397Z" fill="url(#paint5_linear_122_356)"/>
<path d="M147.833 4.10604H160.527C160.788 4.10604 161 3.89422 161 3.63351V0.477891C161 0.217186 160.788 0.00536573 160.527 0.00536573H147.306C147.306 0.00536573 147.284 0.0026474 147.273 0.0026474H144.113C143.852 0.0026474 143.64 0.214472 143.64 0.475177V17.7632C143.64 18.0239 143.852 18.2357 144.113 18.2357H160.527C160.788 18.2357 161 18.0239 161 17.7632V15.0149C161 14.7542 160.788 14.5424 160.527 14.5424H148.22C148.086 14.5424 147.967 14.4881 147.88 14.3985V11.1451H160.405C160.734 11.1451 161 10.8789 161 10.5503V7.6853C161 7.3567 160.734 7.09057 160.405 7.09057H147.88V3.54661" fill="url(#paint6_linear_122_356)"/>
<defs>
<linearGradient id="paint0_linear_122_356" x1="8.13063" y1="-8.89113" x2="11.6754" y2="42.0122" gradientUnits="userSpaceOnUse">
<stop stop-color="#FA00FF"/>
<stop offset="0.23" stop-color="#FA00FF"/>
<stop offset="0.76" stop-color="#910091"/>
</linearGradient>
<linearGradient id="paint1_linear_122_356" x1="33.4551" y1="-10.6536" x2="36.9998" y2="40.247" gradientUnits="userSpaceOnUse">
<stop stop-color="#FA00FF"/>
<stop offset="0.23" stop-color="#FA00FF"/>
<stop offset="0.76" stop-color="#910091"/>
</linearGradient>
<linearGradient id="paint2_linear_122_356" x1="63.612" y1="-12.7556" x2="67.1594" y2="38.1477" gradientUnits="userSpaceOnUse">
<stop stop-color="#FA00FF"/>
<stop offset="0.23" stop-color="#FA00FF"/>
<stop offset="0.76" stop-color="#910091"/>
</linearGradient>
<linearGradient id="paint3_linear_122_356" x1="87.1692" y1="-14.3959" x2="90.7167" y2="36.5047" gradientUnits="userSpaceOnUse">
<stop stop-color="#FA00FF"/>
<stop offset="0.23" stop-color="#FA00FF"/>
<stop offset="0.76" stop-color="#910091"/>
</linearGradient>
<linearGradient id="paint4_linear_122_356" x1="105.644" y1="-15.683" x2="109.191" y2="35.2176" gradientUnits="userSpaceOnUse">
<stop stop-color="#FA00FF"/>
<stop offset="0.23" stop-color="#FA00FF"/>
<stop offset="0.76" stop-color="#910091"/>
</linearGradient>
<linearGradient id="paint5_linear_122_356" x1="128.023" y1="-17.2445" x2="131.571" y2="33.6588" gradientUnits="userSpaceOnUse">
<stop stop-color="#FA00FF"/>
<stop offset="0.23" stop-color="#FA00FF"/>
<stop offset="0.76" stop-color="#910091"/>
</linearGradient>
<linearGradient id="paint6_linear_122_356" x1="143.382" y1="-118.833" x2="159.53" y2="112.915" gradientUnits="userSpaceOnUse">
<stop stop-color="#FA00FF"/>
<stop offset="0.23" stop-color="#FA00FF"/>
<stop offset="0.76" stop-color="#910091"/>
</linearGradient>
</defs>
</svg>
